<?xml version="1.0" encoding="UTF-8"?>
<svg width="20px" height="20px" viewBox="0 0 20 20" version="1.1" xmlns="http://www.w3.org/2000/svg" xmlns:xlink="http://www.w3.org/1999/xlink">
    <!-- Generator: Sketch 63.1 (92452) - https://sketch.com -->
    <title>loading@1x</title>
    <desc>Created with Sketch.</desc>
    <g id="loading" stroke="none" stroke-width="1" fill="none" fill-rule="evenodd">
        <g id="编组">
            <rect id="矩形" fill="#FFFFFF" opacity="0" x="0" y="0" width="20" height="20"></rect>
            <path d="M4.75644292,18.5164711 C4.2863983,18.2265117 4.14041044,17.6104066 4.43036992,17.140362 C4.72032939,16.6703174 5.33643444,16.5243295 5.80647907,16.814289 C7.0569608,17.5856818 8.49675381,18 10,18 C14.418278,18 18,14.418278 18,10 C18,5.581722 14.418278,2 10,2 C9.44771525,2 9,1.55228475 9,1 C9,0.44771525 9.44771525,0 10,0 C15.5228475,0 20,4.4771525 20,10 C20,15.5228475 15.5228475,20 10,20 C8.12321622,20 6.32033271,19.481198 4.75644292,18.5164711 Z M9.98241683,1.36416329e-05 C10.5347008,-0.000937314435 10.9831875,0.446005136 10.9841415,0.998289064 C10.9850924,1.55057299 10.53815,1.99905971 9.98586605,2.00001364 C5.85627236,2.00713413 2.41987888,5.15741378 2.0355964,9.23962963 C1.98383549,9.78948348 1.49613037,10.1932676 0.946276521,10.1415067 C0.396422674,10.0897458 -0.00736143376,9.60204065 0.0443994743,9.05218681 C0.525059348,3.94615813 4.81988586,0.00891852509 9.98241683,1.36416329e-05 Z" id="loading" fill="#9CA2A9" fill-rule="nonzero">
              <animateTransform
                attributeType="xml"
                attributeName="transform"
                type="rotate"
                from="0 10 10"
                to="360 10 10"
                dur="1s"
                additive="sum"
                repeatCount="indefinite"
              ></animateTransform>
            </path>
        </g>
    </g>
</svg>